<?xml version="1.0" encoding="UTF-8"?>
<svg width="275px" height="72px" viewBox="0 0 275 72" version="1.1" xmlns="http://www.w3.org/2000/svg" xmlns:xlink="http://www.w3.org/1999/xlink">
    <!-- Generator: Sketch 49.3 (51167) - http://www.bohemiancoding.com/sketch -->
    <title>logo-black</title>
    <desc>Created with Sketch.</desc>
    <defs>
        <polygon id="path-1" points="0.44 0.974 65.896 0.974 65.896 53.94 0.44 53.94"></polygon>
        <polygon id="path-3" points="0.484 0.599 150 0.599 150 70.94 0.484 70.94"></polygon>
    </defs>
    <g id="logo-black" stroke="none" stroke-width="1" fill="none" fill-rule="evenodd">
        <g id="raketa-logo-black">
            <polyline id="Fill-1" fill="#0A0B09" points="0 32.689 17.6 19.651 17.6 71.097 0 71.097 0 32.689"></polyline>
            <g id="Group-5" transform="translate(19.000000, 18.000000)">
                <mask id="mask-2" fill="white">
                    <use xlink:href="#path-1"></use>
                </mask>
                <g id="Clip-3"></g>
                <path d="M18.751,16.641 L16.482,16.521 C9.371,16.534 2.376,17.847 1.342,20.807 L0.44,20.78 C1.423,6.814 9.357,0.965 18.717,1.246 L18.751,16.641" id="Fill-2" fill="#0A0B09" mask="url(#mask-2)"></path>
                <path d="M48.184,18.01 C48.184,8.645 43.784,5.825 35.999,5.825 C33.178,5.825 30.809,6.164 29.004,6.84 L29.004,5.712 C32.501,3.117 40.399,0.974 46.604,0.974 C58.45,0.974 65.896,5.035 65.896,15.528 L65.896,53.097 L48.184,53.097 L48.184,18.01 Z M22.122,14.963 C22.122,11.466 24.491,8.871 28.44,8.871 C32.388,8.871 34.758,11.466 34.758,14.963 C34.758,18.461 32.388,21.056 28.44,21.056 C24.491,21.056 22.122,18.461 22.122,14.963 Z M18.962,41.138 C18.962,33.015 23.927,30.082 28.891,28.277 C31.598,27.374 40.173,25.456 45.589,24.553 L45.589,25.682 C43.219,26.472 40.512,27.374 38.819,28.615 C37.127,30.42 35.999,32.451 35.999,37.979 C35.999,44.297 37.353,47.569 40.963,47.569 C43.558,47.569 44.912,46.328 46.153,45.538 L46.153,46.554 C44.574,49.036 41.527,54 33.404,54 C24.378,54 18.962,48.923 18.962,41.138 Z" id="Fill-4" fill="#0A0B09" mask="url(#mask-2)"></path>
            </g>
            <polyline id="Fill-6" fill="#0A0B09" points="90.182 17.971 107.782 0.596 107.782 71.097 90.182 71.097 90.182 17.971"></polyline>
            <path d="M125.383,71.097 C119.967,62.974 115.229,56.544 110.603,48.307 L123.239,36.8 C130.46,50 137.342,59.138 144.224,70.307 L144.224,71.097 L125.383,71.097" id="Fill-7" fill="#0A0B09"></path>
            <g id="Group-13" transform="translate(125.000000, 1.000000)">
                <mask id="mask-4" fill="white">
                    <use xlink:href="#path-3"></use>
                </mask>
                <g id="Clip-9"></g>
                <polyline id="Fill-8" fill="#0A0B09" mask="url(#mask-4)" points="0.484 18.528 17.193 18.528 0.484 33.657 0.484 18.528"></polyline>
                <path d="M37.422,43.151 L47.122,33.657 C47.458,28.318 44.755,20.891 42.787,19.102 L42.787,17.974 C50.633,18.528 55.939,21.524 59.628,28.128 L38.012,44.487 L37.422,43.151 Z M15.033,44.035 C15.033,29.594 26.428,19.215 39.966,17.974 L39.966,19.102 C35.002,20.343 32.859,25.42 32.859,38.395 C32.859,51.595 38.838,58.138 48.879,58.138 C54.859,58.138 60.049,56.333 63.321,53.738 L63.321,55.43 C61.178,61.184 55.197,71 40.756,71 C23.495,71 15.033,58.477 15.033,44.035 Z" id="Fill-10" fill="#0A0B09" mask="url(#mask-4)"></path>
                <path d="M67.039,54.754 L67.039,24.856 L67.152,18.876 L67.152,17.974 L84.64,0.599 L84.64,18.876 L98.967,18.876 L98.967,24.856 L84.64,24.856 L84.64,52.948 C84.64,59.266 86.783,62.538 92.989,62.538 C95.696,62.538 99.193,61.749 100.434,60.846 L100.434,62.313 C97.84,66.713 91.86,71 82.834,71 C73.018,71 67.039,66.149 67.039,54.754" id="Fill-11" fill="#0A0B09" mask="url(#mask-4)"></path>
                <path d="M132.286,35.01 C132.286,25.645 127.887,22.825 120.102,22.825 C117.281,22.825 114.912,23.164 113.107,23.84 L113.107,22.712 C116.604,20.117 124.502,17.974 130.708,17.974 C142.553,17.974 150,22.035 150,32.528 L150,70.097 L132.286,70.097 L132.286,35.01 Z M106.225,31.963 C106.225,28.466 108.594,25.871 112.542,25.871 C116.492,25.871 118.861,28.466 118.861,31.963 C118.861,35.461 116.492,38.056 112.542,38.056 C108.594,38.056 106.225,35.461 106.225,31.963 Z M103.066,58.138 C103.066,50.015 108.03,47.082 112.994,45.277 C115.702,44.374 124.276,42.456 129.692,41.553 L129.692,42.682 C127.323,43.472 124.615,44.374 122.923,45.615 C121.23,47.42 120.102,49.451 120.102,54.979 C120.102,61.297 121.456,64.569 125.066,64.569 C127.661,64.569 129.015,63.328 130.256,62.538 L130.256,63.554 C128.676,66.036 125.63,71 117.507,71 C108.482,71 103.066,65.923 103.066,58.138 Z" id="Fill-12" fill="#0A0B09" mask="url(#mask-4)"></path>
            </g>
        </g>
    </g>
</svg>